# xmcd CD database file
#
# Track frame offsets:
#	150
#	31581
#	71272
#	95284
#	117904
#	132457
#	147169
#	173250
#	199559
#	219832
#
# Disc length: 3451 seconds
#
# Revision: 1
# Processed by: cddbd v1.5PL3 Copyright (c) Steve Scherf et al.
# Submitted via: CDex 1.51
#
DISCID=790d790a
DTITLE=Sue Terry - Practice Like The Pros - Disc 2
DYEAR=2002
DGENRE=Jazz
TTITLE0=Virginia Mayhew - Basic Warmup, Scale Study
TTITLE1=Andy Middleton - Patterns
TTITLE2=Tom Murray - Improvisation
TTITLE3=Tom Olin - Advanced Warmup, Chord Study
TTITLE4=Jay Rodriquez - Ear training, Musicianship
TTITLE5=Benny Russell - Chord Study, Patterns
TTITLE6=Andrew Sterman - Breathing
TTITLE7=Taimur Sullivan - Overtones
TTITLE8=Jorge Sylvester - Ear Training, Patterns
TTITLE9=Sue Terry - Tone, Intonation
EXTD=YEAR: 2002
EXTT0=
EXTT1=
EXTT2=
EXTT3=
EXTT4=
EXTT5=
EXTT6=
EXTT7=
EXTT8=
EXTT9=
PLAYORDER=
